<svg xmlns="http://www.w3.org/2000/svg" xmlns:xlink="http://www.w3.org/1999/xlink" width="512" height="512" viewBox="0 0 135.467 135.467">
    <defs>
        <linearGradient id="linearGradient942">
            <stop offset="0" stop-color="#e6e6e6" stop-opacity="0"/>
            <stop offset=".869" stop-color="#b3b3b3" stop-opacity="0"/>
            <stop offset="1" stop-color="#808080"/>
        </linearGradient>
        <linearGradient id="linearGradient934">
            <stop offset="0" stop-color="#e6e6e6" stop-opacity=".25"/>
            <stop offset="1" stop-color="#b3b3b3" stop-opacity=".5"/>
        </linearGradient>
        <radialGradient id="radialGradient823" cx="67.733" cy="-312.6" r="67.733" fx="67.733" fy="-312.6" gradientUnits="userSpaceOnUse" xlink:href="#linearGradient934"/>
        <radialGradient id="radialGradient864" cx="256" cy="255.998" r="256" fx="256" fy="255.998" gradientTransform="translate(0 -.001) scale(.26458)" gradientUnits="userSpaceOnUse" xlink:href="#linearGradient942"/>
    </defs>
    <g fill-rule="evenodd">
        <path fill="url(#radialGradient823)" d="M67.732-380.334A67.733 67.733 0 0 0 0-312.6a67.733 67.733 0 0 0 67.732 67.733 67.733 67.733 0 0 0 67.735-67.733 67.733 67.733 0 0 0-67.735-67.734z" transform="translate(0 380.334)"/>
        <path fill="url(#radialGradient864)" d="M67.732-.001A67.733 67.733 0 0 0 0 67.732a67.733 67.733 0 0 0 67.732 67.732 67.733 67.733 0 0 0 67.735-67.732A67.733 67.733 0 0 0 67.732-.002z"/>
    </g>
    <path fill="#fff" d="M76.572 76.572c3.144-3.099 6.47-6.84 9.438-11.415 3.037-4.47 5.163-10.062 5.77-16.11.413-7.697-2.117-13.77-5.257-18.013-4.5-5.995-9.777-9.423-13.11-11.308-3.511-1.986-5.68-2.793-5.68-2.793s.954 2.125 2.393 5.718c1.338 3.34 3.405 8.803 3.821 13.916.19 3.317-.198 6.713-1.686 8.577-.955 1.754-2.812 3.43-4.944 5.719-2.805 2.835-5.617 5.196-8.422 8.031-3.144 3.1-6.47 6.84-9.438 11.415-3.037 4.471-5.163 10.062-5.77 16.11-.413 7.698 2.117 13.77 5.257 18.014 4.5 5.994 9.777 9.423 13.11 11.308 3.511 1.985 5.68 2.792 5.68 2.792s-.954-2.124-2.393-5.718c-1.338-3.34-3.405-8.802-3.821-13.916-.19-3.317.198-6.712 1.686-8.576.955-1.754 2.812-3.431 4.944-5.719 2.805-2.836 5.617-5.196 8.422-8.032z"/>
    <path fill="#808080" d="M68.794 68.794c3.163-3.158 6.293-6.315 8.99-9.926 2.639-3.51 4.649-7.38 5.408-11.538.89-5.124-.365-10.033-2.202-13.862-2.685-5.598-6.586-9.938-9.023-12.455-2.603-2.688-4.234-4.08-4.234-4.08s1.485 1.55 3.84 4.431c2.196 2.688 5.714 7.28 7.908 12.768 1.482 3.717 2.388 8.308 1.369 12.73-.8 3.642-2.78 7.043-5.308 10.29-2.626 3.35-5.699 6.345-8.87 9.52-3.162 3.158-6.292 6.316-8.99 9.927-2.638 3.51-4.648 7.38-5.407 11.538-.89 5.123.365 10.032 2.202 13.861 2.685 5.599 6.586 9.939 9.023 12.456 2.603 2.688 4.233 4.08 4.233 4.08s-1.484-1.55-3.839-4.431c-2.196-2.689-5.714-7.28-7.908-12.769-1.482-3.716-2.388-8.307-1.369-12.729.8-3.642 2.78-7.043 5.308-10.29 2.626-3.35 5.699-6.345 8.87-9.521z"/>
    <path fill="#808080" d="M69.855 69.855c3.16-3.15 6.317-6.388 9.051-10.13 2.693-3.64 4.719-7.745 5.457-12.16.825-5.475-.604-10.543-2.619-14.429-2.931-5.653-7.022-9.867-9.58-12.299-2.726-2.592-4.43-3.904-4.43-3.904s1.411 1.628 3.641 4.607c2.078 2.774 5.402 7.49 7.351 12.924 1.306 3.66 2.036 8.092.953 12.163-.822 3.385-2.784 6.551-5.259 9.667-2.59 3.221-5.633 6.133-8.808 9.318-3.16 3.149-6.317 6.387-9.051 10.13-2.693 3.64-4.719 7.745-5.457 12.16-.825 5.475.604 10.543 2.619 14.428 2.931 5.653 7.022 9.867 9.58 12.3 2.726 2.591 4.43 3.903 4.43 3.903s-1.411-1.628-3.641-4.606c-2.078-2.774-5.402-7.49-7.351-12.925-1.306-3.66-2.036-8.091-.953-12.163.822-3.384 2.784-6.55 5.259-9.667 2.59-3.22 5.633-6.132 8.808-9.317z"/>
</svg>
