<?xml version="1.0" encoding="UTF-8" standalone="no"?>
<svg
   xmlns:dc="http://purl.org/dc/elements/1.1/"
   xmlns:cc="http://creativecommons.org/ns#"
   xmlns:rdf="http://www.w3.org/1999/02/22-rdf-syntax-ns#"
   xmlns:svg="http://www.w3.org/2000/svg"
   xmlns="http://www.w3.org/2000/svg"
   xmlns:xlink="http://www.w3.org/1999/xlink"
   xmlns:sodipodi="http://sodipodi.sourceforge.net/DTD/sodipodi-0.dtd"
   xmlns:inkscape="http://www.inkscape.org/namespaces/inkscape"
   width="512"
   height="2560"
   viewBox="0 0 135.467 677.333"
   version="1.1"
   id="svg24"
   sodipodi:docname="marbleBases.svg"
   inkscape:version="0.92.3 (2405546, 2018-03-11)">
  <metadata
     id="metadata28">
    <rdf:RDF>
      <cc:Work
         rdf:about="">
        <dc:format>image/svg+xml</dc:format>
        <dc:type
           rdf:resource="http://purl.org/dc/dcmitype/StillImage" />
      </cc:Work>
    </rdf:RDF>
  </metadata>
  <sodipodi:namedview
     pagecolor="#ffffff"
     bordercolor="#666666"
     borderopacity="1"
     objecttolerance="10"
     gridtolerance="10"
     guidetolerance="10"
     inkscape:pageopacity="0"
     inkscape:pageshadow="2"
     inkscape:window-width="1360"
     inkscape:window-height="705"
     id="namedview26"
     showgrid="false"
     inkscape:zoom="0.7375"
     inkscape:cx="304.00124"
     inkscape:cy="2350.3063"
     inkscape:window-x="-8"
     inkscape:window-y="-8"
     inkscape:window-maximized="1"
     inkscape:current-layer="svg24" />
  <defs
     id="defs16">
    <inkscape:path-effect
       effect="taper_stroke"
       id="path-effect1053"
       is_visible="true"
       stroke_width="6"
       attach_start="0.5"
       end_offset="0.5"
       smoothing="0.5"
       jointype="extrapolated"
       miter_limit="100" />
    <inkscape:path-effect
       effect="taper_stroke"
       id="path-effect1049"
       is_visible="true"
       stroke_width="4"
       attach_start="0.5"
       end_offset="0.5"
       smoothing="0.5"
       jointype="extrapolated"
       miter_limit="100" />
    <inkscape:path-effect
       miter_limit="100"
       jointype="extrapolated"
       smoothing="0.5"
       end_offset="0.95825694"
       attach_start="1.0417431"
       stroke_width="15"
       is_visible="true"
       id="path-effect1045"
       effect="taper_stroke" />
    <inkscape:path-effect
       miter_limit="100"
       jointype="extrapolated"
       smoothing="0.5"
       end_offset="0.5"
       attach_start="0.5"
       stroke_width="3"
       is_visible="true"
       id="path-effect1041"
       effect="taper_stroke" />
    <inkscape:path-effect
       effect="taper_stroke"
       id="path-effect1037"
       is_visible="true"
       stroke_width="25"
       attach_start="0.5"
       end_offset="0.5"
       smoothing="0.5"
       jointype="extrapolated"
       miter_limit="100" />
    <linearGradient
       id="linearGradient942">
      <stop
         offset="0"
         stop-color="#e6e6e6"
         stop-opacity="0"
         id="stop2"
         style="stop-opacity:0" />
      <stop
         offset=".869"
         stop-color="#b3b3b3"
         stop-opacity="0"
         id="stop4" />
      <stop
         offset="1"
         stop-color="#808080"
         id="stop6" />
    </linearGradient>
    <linearGradient
       id="linearGradient934">
      <stop
         offset="0"
         stop-color="#e6e6e6"
         id="stop9"
         style="stop-opacity:0.25" />
      <stop
         offset="1"
         stop-color="#b3b3b3"
         id="stop11"
         style="stop-opacity:0.5" />
    </linearGradient>
    <radialGradient
       id="radialGradient823"
       cx="67.733"
       cy="-312.6"
       r="67.733"
       fx="67.733"
       fy="-312.6"
       gradientUnits="userSpaceOnUse"
       xlink:href="#linearGradient934" />
    <radialGradient
       id="radialGradient864"
       cx="256"
       cy="255.998"
       r="256"
       fx="256"
       fy="255.998"
       gradientTransform="matrix(0.26458,0,0,0.26458,0,-0.001)"
       gradientUnits="userSpaceOnUse"
       xlink:href="#linearGradient942" />
  </defs>
  <g
     id="g22"
     fill-rule="evenodd">
    <path
       d="M67.732-380.334A67.733 67.733 0 0 0 0-312.6a67.733 67.733 0 0 0 67.732 67.733 67.733 67.733 0 0 0 67.735-67.733 67.733 67.733 0 0 0-67.735-67.734z"
       transform="translate(0 380.333)"
       id="path18"
       fill="url(#radialGradient823)" />
    <path
       d="M 67.732,-0.001 A 67.733,67.733 0 0 0 0,67.732 67.733,67.733 0 0 0 67.732,135.464 67.733,67.733 0 0 0 135.467,67.732 67.733,67.733 0 0 0 67.732,-0.002 Z"
       id="path20"
       style="fill:url(#radialGradient864)"
       inkscape:connector-curvature="0" />
  </g>
  <path
     style="fill:#ffffff;fill-rule:nonzero;stroke:none;stroke-width:0.26458398;stroke-linecap:butt;stroke-linejoin:miter;stroke-miterlimit:4;stroke-dasharray:none;stroke-opacity:1"
     d="M 76.572333,76.571332 C 79.7163,73.472424 83.041701,69.731902 86.00968,65.156339 89.046788,60.685427 91.173345,55.094624 91.780915,49.046924 92.193232,41.34927 89.662619,35.277078 86.523106,31.032871 82.022728,25.0384 76.745874,21.609798 73.413143,19.725141 c -3.511365,-1.985675 -5.679647,-2.792767 -5.679647,-2.792767 0,0 0.953753,2.124868 2.392918,5.717929 1.338035,3.340577 3.404224,8.802925 3.820656,13.916025 0.189118,3.3171 -0.197991,6.712954 -1.685922,8.576643 -0.95507,1.754245 -2.81187,3.43102 -4.944415,5.718763 -2.805047,2.835681 -5.617023,5.196248 -8.422071,8.031929 -3.143967,3.098908 -6.469368,6.83943 -9.437347,11.414993 -3.037107,4.470912 -5.163665,10.061715 -5.771235,16.109415 -0.412317,7.697654 2.118296,13.769849 5.257809,18.014049 4.500379,5.99447 9.777232,9.42308 13.109963,11.30773 3.511365,1.98568 5.679647,2.79277 5.679647,2.79277 0,0 -0.953753,-2.12487 -2.392918,-5.71793 -1.338035,-3.34058 -3.404224,-8.80292 -3.820657,-13.916024 -0.189117,-3.317099 0.197992,-6.712953 1.685923,-8.576642 0.95507,-1.754245 2.81187,-3.43102 4.944415,-5.718762 2.805048,-2.835682 5.617023,-5.196248 8.422071,-8.03193 z"
     id="path1035"
     inkscape:connector-curvature="0"
     sodipodi:nodetypes="cc"
     inkscape:path-effect="#path-effect1037"
     inkscape:original-d="m 67.733496,16.932374 c 50.800124,50.800123 -50.800121,50.800125 3e-6,101.600246" />
  <path
     inkscape:original-d="m 67.733496,16.932374 c 50.800124,50.800123 -50.800121,50.800125 3e-6,101.600246"
     inkscape:path-effect="#path-effect1041"
     sodipodi:nodetypes="cc"
     inkscape:connector-curvature="0"
     id="path1039"
     d="m 68.794158,68.793158 c 3.162967,-3.157536 6.29303,-6.31531 8.990625,-9.926445 2.63792,-3.509549 4.648145,-7.379717 5.407434,-11.537529 0.889855,-5.12349 -0.365495,-10.032531 -2.202567,-13.861591 -2.685091,-5.598438 -6.585954,-9.938349 -9.022668,-12.455381 -2.602584,-2.688369 -4.233486,-4.079838 -4.233486,-4.079838 0,0 1.484764,1.549363 3.839079,4.430857 2.196304,2.688102 5.71398,7.279344 7.907951,12.768376 1.482939,3.716194 2.388333,8.307302 1.369319,12.729103 -0.800771,3.642407 -2.779061,7.043272 -5.308216,10.29065 -2.625843,3.350164 -5.698653,6.344897 -8.868792,9.520478 -3.162967,3.157536 -6.29303,6.31531 -8.990625,9.926445 -2.63792,3.509548 -4.648145,7.379716 -5.407434,11.537528 -0.889855,5.12349 0.365495,10.03253 2.202567,13.861589 2.685091,5.59844 6.585954,9.93835 9.022668,12.45538 2.602584,2.68837 4.233486,4.07984 4.233486,4.07984 0,0 -1.484764,-1.54936 -3.839079,-4.43086 -2.196303,-2.6881 -5.71398,-7.27934 -7.907951,-12.76837 -1.482939,-3.716196 -2.388333,-8.307305 -1.369319,-12.729105 0.800771,-3.642406 2.779061,-7.043272 5.308216,-10.29065 2.625843,-3.350164 5.698653,-6.344896 8.868792,-9.520477 z"
     style="fill:#808080;fill-rule:nonzero;stroke:none;stroke-width:0.26458398;stroke-linecap:butt;stroke-linejoin:miter;stroke-miterlimit:4;stroke-dasharray:none;stroke-opacity:1" />
  <path
     style="fill:#808080;fill-rule:nonzero;stroke:none;stroke-width:0.26458398;stroke-linecap:butt;stroke-linejoin:miter;stroke-miterlimit:4;stroke-dasharray:none;stroke-opacity:1"
     d="m 69.854818,69.853818 c 3.159897,-3.149043 6.317555,-6.387279 9.051542,-10.129429 2.692326,-3.640642 4.718471,-7.745446 5.457043,-12.160967 0.825052,-5.474492 -0.604828,-10.542187 -2.619191,-14.427837 -2.931551,-5.653242 -7.022207,-9.867284 -9.580026,-12.298883 -2.726586,-2.592037 -4.43069,-3.904328 -4.43069,-3.904328 0,0 1.411866,1.628103 3.641875,4.606367 2.077146,2.774111 5.401134,7.49007 7.350593,12.924874 1.306127,3.660049 2.036034,8.091613 0.952695,12.162858 -0.821545,3.384719 -2.783802,6.550903 -5.258606,9.667211 -2.590813,3.220541 -5.633306,6.132028 -8.807876,9.317493 -3.159897,3.149044 -6.317555,6.38728 -9.051542,10.129429 -2.692326,3.640642 -4.718471,7.745446 -5.457043,12.160967 -0.825052,5.474492 0.604828,10.542186 2.619191,14.427837 2.931551,5.65324 7.022207,9.86728 9.580026,12.29888 2.726586,2.59204 4.43069,3.90433 4.43069,3.90433 0,0 -1.411866,-1.6281 -3.641875,-4.60637 -2.077146,-2.77411 -5.401134,-7.49007 -7.350593,-12.92487 -1.306127,-3.660049 -2.036034,-8.091613 -0.952695,-12.162858 0.821545,-3.384719 2.783802,-6.550902 5.258606,-9.66721 2.590813,-3.220541 5.633306,-6.132029 8.807876,-9.317494 z"
     id="path1051"
     inkscape:connector-curvature="0"
     sodipodi:nodetypes="cc"
     inkscape:path-effect="#path-effect1053"
     inkscape:original-d="m 67.733496,16.932374 c 50.800124,50.800123 -50.800121,50.800125 3e-6,101.600246" />
</svg>
